HIERARCHY
ROOT Hips
{
	OFFSET 0.000000 0.000000 0.000000
	CHANNELS 6 Xposition Yposition Zposition Zrotation Yrotation Xrotation 
	JOINT LHipJoint
	{
		OFFSET 0.000000 0.000000 0.000000
		CHANNELS 3 Zrotation Yrotation Xrotation
		JOINT LeftUpLeg
		{
			OFFSET 1.363060 -1.794630 0.839290
			CHANNELS 3 Zrotation Yrotation Xrotation
			JOINT LeftLeg
			{
				OFFSET 2.448110 -6.726130 0.000000
				CHANNELS 3 Zrotation Yrotation Xrotation
				JOINT LeftFoot
				{
					OFFSET 2.562200 -7.039590 0.000000
					CHANNELS 3 Zrotation Yrotation Xrotation
					JOINT LeftToeBase
					{
						OFFSET 0.157640 -0.433110 2.322550
						CHANNELS 3 Zrotation Yrotation Xrotation
						End Site
						{
							OFFSET 0.000000 0.000000 0.000000
						}
					}
				}
			}
		}
	}
	JOINT RHipJoint
	{
		OFFSET 0.000000 0.000000 0.000000
		CHANNELS 3 Zrotation Yrotation Xrotation
		JOINT RightUpLeg
		{
			OFFSET -1.305520 -1.794630 0.839290
			CHANNELS 3 Zrotation Yrotation Xrotation
			JOINT RightLeg
			{
				OFFSET -2.542530 -6.985550 0.000000
				CHANNELS 3 Zrotation Yrotation Xrotation
				JOINT RightFoot
				{
					OFFSET -2.568260 -7.056230 0.000000
					CHANNELS 3 Zrotation Yrotation Xrotation
					JOINT RightToeBase
					{
						OFFSET -0.164730 -0.452590 2.363150
						CHANNELS 3 Zrotation Yrotation Xrotation
						End Site
						{
							OFFSET 0.000000 0.000000 0.000000
						}
					}
				}
			}
		}
	}
}
MOTION
Frames: 16
Frame Time: 0.008333
0.788241 17.004598 0.138663 137.043533 86.388922 136.753651 -10.858633 5.240839 -0.201301 6.035345 14.859932 2.509323 0.131120 2.398075 38.575183 1.401113 -4.166772 27.818456 -3.043400 -0.000000 -63.257200 9.622983 -0.509092 -0.805240 16.682869 -15.827210 -22.860651 1.575885 0.164926 14.790546 -5.266560 -23.060708 -11.663136 0.026400 0.000000 -5.706000
0.952864 16.995336 0.195373 133.851967 86.851097 133.491872 -10.884873 5.071987 -0.300843 6.374972 15.048058 1.214047 0.252647 2.457373 41.151833 1.524258 -2.608783 27.761426 -2.261900 0.000000 -58.685300 9.606695 -0.624356 -0.856457 16.975790 -15.734349 -22.763953 1.636757 0.004354 16.195755 -5.155997 -22.354426 -12.412869 0.396900 -0.000000 -3.568700
1.113301 16.984668 0.252971 129.095547 87.276308 128.685780 -10.901493 4.872259 -0.420527 6.582224 15.193236 -0.114567 0.377828 2.517805 43.664731 1.643325 -0.665586 27.259761 -1.257100 0.000000 -54.540200 9.590888 -0.735358 -0.889107 17.231508 -15.522295 -22.573928 1.683488 -0.138521 17.443270 -5.099127 -21.853432 -13.288931 0.797400 -0.000000 -1.325999
1.270334 16.973295 0.311409 122.412172 87.631956 121.974402 -10.920750 4.640053 -0.552463 6.659370 15.279545 -1.469977 0.508744 2.573946 46.076980 1.759318 1.542208 26.328960 -0.129800 0.000000 -50.845900 9.563739 -0.849240 -0.902397 17.452768 -15.197838 -22.285666 1.719342 -0.263847 18.510906 -5.095046 -21.559738 -14.262001 -178.777500 0.000000 -0.919900
1.424777 16.962085 0.370616 113.511674 87.878965 113.066964 -10.961753 4.376996 -0.686866 6.607907 15.292737 -2.841435 0.643977 2.620716 48.347483 1.872864 3.879409 25.008000 1.008900 0.000001 -47.632600 9.507705 -0.972324 -0.899277 17.640255 -14.783003 -21.900803 1.748174 -0.372167 19.388322 -5.135835 -21.445008 -15.295626 -178.334200 -0.000000 -3.068501
1.577363 16.951870 0.430480 102.414506 87.976109 101.983587 -11.047088 4.092985 -0.812788 6.428990 15.226375 -4.218837 0.776539 2.657516 50.435673 1.983040 6.207749 23.351418 2.053800 -0.000000 -44.863800 9.403134 -1.104706 -0.884897 17.791604 -14.301574 -21.424795 1.771693 -0.461848 20.076021 -5.209128 -21.460871 -16.348906 -177.882700 0.000000 -5.031600
1.728715 16.943446 0.490873 89.760870 87.887877 89.366391 -11.191052 3.810272 -0.919093 6.126655 15.085347 -5.595366 0.893459 2.691488 52.304875 2.086847 8.399491 21.425123 2.919200 -0.000000 -42.454501 9.238914 -1.235738 -0.864935 17.906213 -13.770464 -20.863725 1.788050 -0.527456 20.582074 -5.300696 -21.550068 -17.379663 -177.436900 0.000000 -6.742000
1.879345 16.937442 0.551728 76.812480 87.594665 76.478956 -11.384274 3.558798 -0.996754 5.714919 14.880944 -6.965119 0.979869 2.735077 53.924092 2.179450 10.348689 19.306743 3.549800 -0.000000 -40.340100 9.026003 -1.346279 -0.844809 17.990250 -13.204325 -20.223855 1.794090 -0.562348 20.920081 -5.394797 -21.649783 -18.347443 -177.014100 0.000000 -8.158600
2.029498 16.934313 0.612949 64.884055 87.104068 64.636036 -11.592411 3.361247 -1.041416 5.220473 14.623315 -8.323447 1.026559 2.797069 55.274320 2.254565 11.975938 17.074279 3.923100 -0.000000 -38.405500 8.797325 -1.420302 -0.826843 18.057793 -12.618667 -19.513822 1.789428 -0.563899 21.104265 -5.476763 -21.704408 -19.217749 -176.633200 0.000001 -9.259600
2.179310 16.934299 0.674516 54.729229 86.450660 54.590399 -11.775290 3.220864 -1.053066 4.672827 14.312725 -9.665291 1.034172 2.874829 56.347413 2.306901 13.235783 14.814894 4.051500 -0.000001 -36.686700 8.589633 -1.455122 -0.809624 18.122909 -12.031012 -18.748534 1.778648 -0.536437 21.147767 -5.534861 -21.671890 -19.967311 -176.311100 0.000000 -10.059900
2.328726 16.937363 0.736366 46.465128 85.680746 46.456851 -11.907879 3.124410 -1.035010 4.095965 13.946837 -10.984753 1.009762 2.957111 57.147531 2.331907 14.109294 12.596055 3.969000 -0.000000 -35.127000 8.425047 -1.461028 -0.790564 18.192279 -11.461694 -17.946091 1.769016 -0.488982 21.064524 -5.561124 -21.525761 -20.583938 -176.060500 0.000000 -10.582400
2.477558 16.943242 0.798453 39.866143 84.832872 40.006766 -11.984805 3.053410 -0.991482 3.502071 13.525096 -12.275131 0.961194 3.031126 57.684965 2.327238 14.604487 10.471444 3.724799 0.000000 -33.673100 8.307911 -1.452468 -0.767844 18.263540 -10.927101 -17.123800 1.766740 -0.430673 20.870548 -5.551624 -21.253918 -21.066698 -175.887501 0.000000 -10.863800
2.625592 16.951496 0.860818 34.618314 83.929447 34.924242 -12.012940 2.992184 -0.927146 2.895295 13.051835 -13.529986 0.894267 3.087577 57.972153 2.293400 14.753711 8.485198 3.374400 0.000000 -32.336200 8.232075 -1.440873 -0.741703 18.328662 -10.436738 -16.294969 1.775119 -0.368204 20.584333 -5.506334 -20.857323 -21.425613 -175.790301 0.000000 -10.952900
2.772589 16.961482 0.923336 30.419044 82.979538 30.904005 -12.003199 2.930621 -0.846712 2.277802 12.539081 -14.746128 0.812328 3.122206 58.027761 2.232775 14.604250 6.651659 2.966700 0.000000 -31.005600 8.187921 -1.433271 -0.712133 18.380619 -9.990078 -15.466826 1.794522 -0.305348 20.223571 -5.428957 -20.350486 -21.677169 -175.760300 0.000000 -10.900801
2.918281 16.972465 0.986166 27.055512 81.982889 27.729906 -11.964693 2.862579 -0.756267 1.646892 11.996664 -15.915983 0.717978 3.133940 57.866394 2.150944 14.220141 4.994814 2.547700 -0.000000 -29.823800 8.168516 -1.431115 -0.683167 18.407897 -9.587819 -14.640461 1.823531 -0.244135 19.805012 -5.324429 -19.751395 -21.844715 -175.784100 -0.000000 -10.755399
3.062677 16.983807 1.049104 24.313907 80.936011 25.187074 -11.905646 2.785544 -0.659985 1.007936 11.441582 -17.043342 0.612604 3.124780 57.512403 2.054394 13.669824 3.498470 2.145300 0.000000 -28.642500 8.166136 -1.434496 -0.653129 18.410807 -9.212267 -13.813766 1.859215 -0.184361 19.340147 -5.201617 -19.092959 -21.951780 -175.845200 0.000000 -10.568700
